{"title":"Drop Dead Gorgeous 2010.DvDRip.XviD.Ac3.Feel-Free","uid":5855326,"size":1558897647,"categoryP":"video","categoryS":"movies","magnet":"?xt=urn:btih:ce857f73d12afa7c64f791450f37ee845fe96590&amp;dn=Drop+Dead+Gorgeous+2010.DvDRip.XviD.Ac3.Feel-Free&amp;tr=udp%3A%2F%2Ftracker.openbittorrent.com%3A80&amp;tr=udp%3A%2F%2Fopen.demonii.com%3A1337&amp;tr=udp%3A%2F%2Ftracker.coppersurfer.tk%3A6969&amp;tr=udp%3A%2F%2Fexodus.desync.com%3A6969","seeders":1,"leechers":1,"uploader":"neon","files":-1,"time":1285587326,"description":"Aspiring model, Cynthia, becomes the focus of a documentary when she is chosen as the face for the world's biggest fashion designer, Claudio. However, there is concern she may have recently eaten, and doesn't quite have 'the look'. Eager to please, she accidentally overdoses an dies on set! What to do? Deadlines loom and they'll cost millions in penalties if they are missed. Should they shoot on? Is using a corpse art? A statement of society? Is it practical? Will anyone actually say no? \n\nGeneral\nComplete name :Drop.Dead.Gorgeous.2010.DvDRip.XviD.Ac3.Feel-Free\nFormat : AVI\nFormat/Info : Audio Video Interleave\nFile size : 1.45 GiB\nDuration : 1h 32mn\nOverall bit rate : 2 243 Kbps\nVideo #0\nMuxing mode : Packed bitstream\nCodec ID : XVID\nCodec ID/Hint : XviD\nDuration : 1h 32mn\nBit rate : 1 786 Kbps\nWidth : 720 pixels\nHeight : 384 pixels\nDisplay aspect ratio : 1.875\nFrame rate : 25.000 fps\nResolution : 24 bits\nColorimetry : 4:2:0\nScan type : Progressive\nBits/(Pixel*Frame) : 0.258\nStream size : 1.16 GiB (80%)\nWriting library : XviD 1.2.1 (UTC 2008-12-04)\nAudio #1\nID : 1\nFormat : AC-3\nFormat/Info : Audio Coding 3\nCodec ID : 2000\nDuration : 1h 32mn\nBit rate mode : Constant\nBit rate : 448 Kbps\nChannel(s) : 6 channels\nChannel positions : Front: L C R, Surround: L R, LFE\nSampling rate : 48.0 KHz\nStream size : 297 MiB (20%)\nAlignment : Split accross interleaves\nInterleave, duration : 40 ms (1.00 video frame)\nInterleave, preload duration : 500 ms\n &lt;a href=&quot;\nhttp://www.imdb.com/title/tt1199453/&quot; rel=&quot;nofollow&quot; target=&quot;_NEW&quot;&gt;\nhttp://www.imdb.com/title/tt1199453/&lt;/a&gt;","torrent":{"xt":"urn:btih:ce857f73d12afa7c64f791450f37ee845fe96590","amp;dn":"Drop+Dead+Gorgeous+2010.DvDRip.XviD.Ac3.Feel-Free","amp;tr":["udp%3A%2F%2Ftracker.openbittorrent.com%3A80","udp%3A%2F%2Fopen.demonii.com%3A1337","udp%3A%2F%2Ftracker.coppersurfer.tk%3A6969","udp%3A%2F%2Fexodus.desync.com%3A6969"],"infoHash":"ce857f73d12afa7c64f791450f37ee845fe96590","infoHashBuffer":{"type":"Buffer","data":[206,133,127,115,209,42,250,124,100,247,145,69,15,55,238,132,95,233,101,144]},"announce":[],"urlList":[]}}